<svg width="23" height="25" viewBox="0 0 23 25" fill="none" xmlns="http://www.w3.org/2000/svg">
<path fill-rule="evenodd" clip-rule="evenodd" d="M12.5128 24.8133C18.4476 24.3008 22.9991 19.4426 23 13.6193C22.9992 8.54423 19.5202 4.09875 14.5089 2.76961C14.6419 2.31708 14.5495 1.8298 14.2595 1.45386C13.9696 1.07791 13.5157 0.857026 13.034 0.857422H9.9675C9.4858 0.857026 9.03192 1.07791 8.74193 1.45386C8.45195 1.8298 8.35958 2.31708 8.49253 2.76961C2.74205 4.29298 -0.865618 9.85699 0.179927 15.5899C1.22547 21.3228 6.57793 25.3258 12.5128 24.8133ZM17.4624 7.76939L17.4657 7.76758L17.4626 7.76908L17.4624 7.76939ZM17.4624 7.76939L9.87616 12.0056L5.53711 19.425L13.1266 15.187L17.4624 7.76939Z" fill="white"/>
</svg>
