<svg width="46" height="34" viewBox="0 0 46 34" fill="none" xmlns="http://www.w3.org/2000/svg">
<path fill-rule="evenodd" clip-rule="evenodd" d="M29.7384 14.2255C29.7381 14.2256 29.7378 14.2258 29.7376 14.226V2.80675C29.7376 1.48099 28.6628 0.40625 27.3371 0.40625C26.0113 0.40625 24.9366 1.48099 24.9366 2.80675V23.7217C24.9366 23.9258 24.962 24.1239 25.01 24.3131C25.628 29.5405 30.0746 33.5951 35.4683 33.5951C41.2847 33.5951 45.9999 28.8799 45.9999 23.0634C45.9999 17.247 41.2847 12.5318 35.4683 12.5318C34.7095 12.5318 33.9695 12.612 33.2562 12.7645V17.5897C33.937 17.3044 34.6846 17.1468 35.469 17.1468C38.634 17.1468 41.1997 19.7125 41.1997 22.8775C41.1997 26.0424 38.634 28.6081 35.469 28.6081C32.3041 28.6081 29.7384 26.0424 29.7384 22.8775C29.7384 22.856 29.7385 22.8345 29.7387 22.8131C29.7385 22.8012 29.7384 22.7893 29.7384 22.7774V14.2255ZM38.1397 22.8313C38.1397 24.3063 36.944 25.5021 35.469 25.5021C33.994 25.5021 32.7983 24.3063 32.7983 22.8313C32.7983 21.3563 33.994 20.1606 35.469 20.1606C36.944 20.1606 38.1397 21.3563 38.1397 22.8313Z" fill="#5A00EF"/>
<rect x="16.6258" y="4.67969" width="4.801" height="18.8287" rx="2.4005" fill="#5A00EF"/>
<rect x="8.31511" y="8.16406" width="4.801" height="11.8628" rx="2.4005" fill="#5A00EF"/>
<rect y="11.625" width="4.7979" height="5.3751" rx="2.39895" fill="#5A00EF"/>
</svg>
