<svg width="98" height="72" viewBox="0 0 98 72" fill="none" xmlns="http://www.w3.org/2000/svg">
<path fill-rule="evenodd" clip-rule="evenodd" d="M11.6639 23.2461C13.1579 18.36 16.5986 14.3174 21.1651 12.0828C25.3105 10.2966 30.1117 11.1363 33.4163 14.2253C35.2544 15.7286 35.8691 18.2829 34.9185 20.4668C34.2365 21.1435 33.2973 21.4903 32.3426 21.4179C31.3879 21.3456 30.5108 20.8612 29.9371 20.0893C28.5003 17.801 28.4791 14.8895 29.8825 12.5802C30.925 10.2769 32.3806 8.18693 34.1761 6.41535C37.534 2.77511 42.5047 1.11244 47.3582 2.00604C51.8406 2.9301 55.3101 6.51347 56.1137 11.0491C56.5044 13.4699 55.4738 15.9005 53.4672 17.2906C51.7625 18.265 49.5964 17.6696 48.6197 15.9582C48.2654 14.6238 48.4228 13.2041 49.0608 11.9813C49.4855 10.9293 50.0333 9.93199 50.6926 9.01063C52.0707 7.11607 53.8259 5.53169 55.8463 4.35867C59.8605 1.91587 64.6103 1.00033 69.2367 1.77765C73.5639 2.37845 77.3457 5.02465 79.4141 8.89889C80.885 13.3989 78.8286 18.3013 74.5993 20.3768C73.5839 21.0174 72.4812 21.5056 71.326 21.8262C70.3751 22.2247 69.2838 22.0676 68.482 21.4166C68.0084 20.1783 68.323 18.7746 69.2787 17.861C69.9468 16.9399 70.7171 16.0985 71.5746 15.3532C75.1013 12.2588 79.7716 10.8267 84.4125 11.4166C88.9671 12.1163 92.8886 15.027 94.9001 19.201C97.0156 23.1879 96.9588 27.9874 94.7494 31.9223C92.4479 35.6136 88.5364 37.9785 84.2191 38.2892C83.1958 38.3588 82.1679 38.289 81.1631 38.0816C80.0277 37.9694 78.9574 37.4953 78.108 36.7284C77.681 35.9719 77.6932 35.0421 78.1398 34.2972C78.5835 33.3533 79.2992 32.5659 80.1936 32.0374C83.9075 30.1821 88.359 30.7112 91.5418 33.3862C95.0297 36.0775 96.7306 40.5066 95.9482 44.8606C95.02 49.699 92.1386 53.932 87.992 56.549C84.0864 59.0741 79.3305 59.8956 74.8124 58.8254C72.6312 58.296 70.6395 57.1654 69.0605 55.5604C67.6481 54.1829 66.9701 52.2113 67.2342 50.2492C67.5169 49.3237 68.2555 48.6117 69.1861 48.3677C70.1167 48.1237 71.1064 48.3826 71.8015 49.0519C73.5508 50.8453 74.3028 53.3957 73.8086 55.8598C73.2811 60.5232 70.7651 64.7247 66.9154 67.3708C63.3159 70.0574 58.6348 70.7907 54.3949 69.3321C50.5502 67.7435 47.5409 64.6077 46.0958 60.6841C45.3596 58.8029 45.0378 56.7831 45.1526 54.7644C45.2244 53.7275 45.4357 52.7051 45.7808 51.7254C45.9389 50.6518 46.6226 49.7302 47.6001 49.273C48.623 49.2547 49.5285 49.9359 49.8011 50.9288C50.1051 52.2765 50.0184 53.6838 49.5513 54.9835C48.9127 57.3264 47.8691 59.5377 46.4684 61.5161C43.836 65.4106 39.7356 68.0507 35.1205 68.8227C30.696 69.3912 26.2505 67.9413 22.9972 64.8688C19.9497 61.9463 18.7856 57.5507 19.9832 53.4883C20.52 51.526 21.5442 49.7337 22.9593 48.2804C23.6394 47.5913 24.4164 47.0068 25.2655 46.5456C25.6807 46.321 26.1142 46.1323 26.5611 45.9816C27.0415 45.7161 27.6004 45.6327 28.1365 45.7464C28.5579 46.509 28.5285 47.4433 28.0601 48.1776C27.5881 49.279 26.9944 50.3235 26.2905 51.2913C24.8665 53.2537 23.0257 54.8713 20.9023 56.0265C18.8186 57.1839 16.4745 57.7824 14.095 57.7648C11.809 57.7036 9.58468 57.0047 7.66977 55.746C3.70691 53.3812 1.49675 48.8899 2.02854 44.2823C2.92897 39.7868 6.47873 36.3096 10.9663 35.5273C13.2389 34.9975 15.6051 35.8935 16.968 37.7997C18.2709 40.2461 14.4608 41.0023 12.8448 40.9857C8.29045 41.0943 4.32141 37.8815 3.4478 33.3792C2.57419 28.877 5.05036 24.3961 9.31037 22.7704C11.4504 21.755 13.9667 21.9726 15.9034 23.3405C16.6535 23.9394 17.107 24.8379 17.1452 25.8011C17.1835 26.7643 16.8028 27.6963 16.1026 28.3537C15.2606 28.7327 14.3007 28.7455 13.4491 28.3891C12.5974 28.0326 11.9293 27.3385 11.6021 26.4702C10.9226 23.9221 11.6497 21.2027 13.5079 19.3427C14.1258 18.6229 13.0874 17.5684 12.4653 18.2926C10.0835 20.4442 9.07957 23.7463 9.85708 26.8718C10.773 29.3582 13.3543 30.7989 15.9336 30.2633C17.0684 29.8161 17.9769 28.9282 18.4549 27.7994C18.9328 26.6706 18.9401 25.3958 18.4749 24.2616C17.309 21.6359 14.5793 20.0823 11.744 20.4308C6.27771 20.9865 1.97407 25.3739 1.48972 30.8847C1.19406 36.422 4.94192 41.3534 10.3272 42.5129C12.9134 43.2862 15.7107 42.776 17.8632 41.1384C18.8998 40.12 19.1872 38.5547 18.5808 37.2305C17.9603 35.9694 16.9155 34.971 15.6325 34.4129C11.7392 33.2573 7.53013 34.1293 4.40617 36.7388C1.28221 39.3482 -0.346552 43.3526 0.0620057 47.419C0.434421 50.116 1.60957 52.636 3.43258 54.6471C7.19367 58.928 13.073 60.6341 18.5197 59.0253C21.1735 58.2099 23.5977 56.7729 25.5935 54.832C26.6394 53.8218 27.5618 52.6896 28.341 51.4592C29.1066 50.3455 29.6821 49.1109 30.0436 47.8063C30.4483 46.6215 30.17 45.3086 29.3202 44.3933C28.0337 43.6888 26.4691 43.7416 25.2323 44.5313C23.0336 45.495 21.1705 47.0976 19.8817 49.1339C17.0661 53.3831 16.8275 58.8556 19.2626 63.3369C22.1007 67.8715 26.9891 70.6919 32.3094 70.8642C37.8146 70.9975 43.0765 68.5814 46.5866 64.3086C48.4312 62.1542 49.865 59.6754 50.8161 56.9969C52.3174 54.314 52.1362 50.9978 50.3518 48.4969C49.3263 47.4519 47.7777 47.1299 46.425 47.6803C45.1987 48.4413 44.3143 49.6526 43.9589 51.0583C43.1314 53.4088 42.935 55.9377 43.3894 58.3892C44.2812 63.3178 47.2659 67.6086 51.5611 70.1367C56.2044 72.7057 61.8503 72.6127 66.4077 69.8919C71.2138 67.1812 74.5392 62.4214 75.4492 56.9506C76.058 54.0489 75.4601 51.0227 73.7947 48.5766C72.9757 47.4552 71.7345 46.7225 70.3627 46.5508C68.9909 46.379 67.6093 46.7833 66.5426 47.6687C64.9552 49.6425 64.7389 52.3969 65.9984 54.5975C67.202 56.8998 69.1575 58.7135 71.535 59.7324C76.6271 61.924 82.4277 61.6953 87.3341 59.1094C92.4256 56.5079 96.1203 51.7799 97.434 46.1849C98.0415 43.5523 97.9025 40.8008 97.0326 38.2439C96.1618 35.9193 94.6704 33.8821 92.7227 32.3569C89.0276 29.0826 83.7426 28.3593 79.3136 30.5219C76.9445 31.6921 75.662 34.3283 76.1958 36.9306C76.798 38.2024 77.95 39.1226 79.3168 39.4239C80.5433 39.8343 81.8251 40.0526 83.1173 40.0712C88.2364 40.0818 93.0213 37.5132 95.866 33.2277C98.5962 28.7151 98.7145 23.075 96.176 18.4504C93.7605 13.6443 89.0876 10.4015 83.7676 9.83956C78.3279 9.38014 72.975 11.4317 69.2153 15.417C67.5545 17.2018 65.0742 20.7387 67.6613 22.8492C70.2013 24.007 73.1771 23.5815 75.2967 21.7575C77.7156 20.351 79.6254 18.2036 80.7478 15.6281C81.6967 13.2816 81.676 10.6507 80.6905 8.31961C78.3142 3.76074 73.8263 0.70525 68.7396 0.183121C63.3451 -0.529227 57.8835 0.852784 53.4642 4.04846C51.2492 5.61949 49.4304 7.69104 48.1533 10.0972C46.3794 12.4406 46.3941 15.6929 48.1891 18.02C50.1379 19.6447 52.9488 19.6785 54.9356 18.1011C57.0097 16.2156 57.9637 13.3814 57.4558 10.6145C56.4022 5.33875 52.1934 1.28418 46.9127 0.457564C41.2907 -0.227137 35.7105 2.02499 32.1144 6.43007C30.043 8.6676 28.5186 11.3609 27.6625 14.2959C26.675 17.0509 27.5496 20.1331 29.8335 21.9468C30.7676 22.6879 31.9567 23.023 33.1371 22.8779C34.3174 22.7327 35.3915 22.1194 36.1211 21.1737C37.3128 18.6656 36.7911 15.6721 34.8224 13.7224C31.2199 9.88694 25.6338 8.70157 20.8006 10.747C15.7791 13.0995 12.0475 17.5675 10.6069 22.9525C10.5367 23.2429 10.7083 23.5369 10.9945 23.6163C11.2807 23.6957 11.5777 23.5317 11.6651 23.2461H11.6639Z" fill="#8082A5"/>
</svg>
