<svg width="439" height="428" viewBox="0 0 439 428" fill="none" xmlns="http://www.w3.org/2000/svg">
<circle cx="223.989" cy="268.857" r="159" fill="#F38472"/>
<path fill-rule="evenodd" clip-rule="evenodd" d="M166.349 206.342C174.486 202 182.623 197.659 190.804 193.393C191.53 193.013 191.921 193.988 191.223 194.372L191.067 194.458C188.094 196.092 185.125 197.724 182.139 199.336C171.458 205.093 160.777 210.851 150.097 216.611C149.783 216.739 149.436 216.698 149.213 216.506C148.99 216.315 148.934 216.009 149.069 215.727C149.992 214.32 150.906 212.908 151.819 211.495C152.849 209.904 153.878 208.312 154.921 206.727C161.482 196.767 168.042 186.807 174.602 176.847C175.417 176.55 176.234 176.255 177.051 175.962L175.858 174.939C175.439 175.575 175.02 176.211 174.602 176.847C172.622 177.567 170.647 178.3 168.678 179.045C158.888 182.755 149.235 186.782 139.721 191.126C139.284 191.301 138.806 191.213 138.543 190.91C138.28 190.608 138.294 190.162 138.578 189.813L144.452 182.017C150.831 173.598 157.21 165.181 163.589 156.764C164.442 156.524 165.296 156.287 166.151 156.053L165.237 154.59C164.687 155.315 164.138 156.04 163.589 156.764C161.791 157.272 159.997 157.796 158.206 158.337C148.959 161.137 139.824 164.349 130.836 167.957C130.359 168.148 129.835 168.053 129.546 167.722C129.258 167.39 129.274 166.902 129.585 166.52C135.221 159.596 140.855 152.671 146.489 145.746C147.601 145.395 148.71 145.032 149.816 144.656L148.556 143.205C147.867 144.052 147.178 144.899 146.489 145.746C140.837 147.526 135.1 148.974 129.319 150.081C128.862 150.153 128.433 149.984 128.223 149.648C128.013 149.312 128.062 148.873 128.347 148.526C131.853 145.143 134.966 141.468 137.63 137.571C138.192 137.597 138.754 137.624 139.316 137.65L138.477 136.3C138.2 136.726 137.917 137.15 137.63 137.571C135.274 137.46 132.919 137.35 130.564 137.242L128.467 137.147C127.867 137.177 127.274 137.14 126.703 137.036C126.132 136.7 125.678 136.235 125.383 135.68L124.394 134.434C123.04 132.714 121.734 130.962 120.475 129.179C117.906 125.528 115.52 121.777 113.317 117.925C113.192 117.624 113.239 117.271 113.444 116.968C113.649 116.666 113.989 116.447 114.366 116.376C117.376 115.808 120.387 116.149 122.905 117.344C123.42 117.672 123.489 118.342 123.061 118.85C122.616 119.341 121.858 119.485 121.331 119.178C119.832 118.501 118.127 118.195 116.372 118.275C116.114 117.833 115.858 117.39 115.605 116.945L114.553 118.496C115.161 118.376 115.77 118.303 116.372 118.275C119.788 124.118 123.635 129.723 127.892 135.056C127.73 135.048 127.569 135.04 127.407 135.032L128.14 135.366C128.057 135.263 127.975 135.16 127.892 135.056C131.089 135.213 134.289 135.352 137.49 135.491C138.239 135.524 138.989 135.557 139.739 135.589C140.091 135.611 140.392 135.777 140.556 136.041C140.719 136.304 140.727 136.635 140.578 136.939C138.194 140.645 135.415 144.166 132.287 147.447C131.24 147.668 130.191 147.878 129.142 148.076L130.114 149.632C130.856 148.917 131.58 148.188 132.287 147.447C137.936 146.252 143.535 144.716 149.043 142.851C149.524 142.66 150.051 142.757 150.341 143.091C150.631 143.424 150.617 143.915 150.305 144.301C144.745 151.125 139.185 157.95 133.624 164.775C132.436 165.231 131.251 165.694 130.069 166.166L131.319 167.605C132.087 166.661 132.856 165.718 133.624 164.775C135.03 164.235 136.44 163.706 137.854 163.186C147.111 159.774 156.5 156.764 165.984 154.167C166.413 154.103 166.814 154.263 167.01 154.578C167.207 154.893 167.163 155.305 166.899 155.632C164.931 158.225 162.963 160.817 160.995 163.407C154.771 171.625 148.532 179.835 142.277 188.036C141.189 188.517 140.104 189.002 139.02 189.491L140.165 190.804C140.869 189.881 141.573 188.959 142.277 188.036C143.911 187.313 145.551 186.599 147.195 185.893C156.817 181.763 166.552 177.946 176.401 174.445C177.107 174.192 178.081 174.733 177.594 175.466L171.654 184.441C165.114 194.284 158.575 204.127 152.035 213.969C151.202 214.413 150.368 214.856 149.535 215.299L150.565 216.182C151.055 215.444 151.545 214.707 152.035 213.969C154.244 212.794 156.454 211.617 158.664 210.439C161.226 209.075 163.788 207.709 166.349 206.342ZM102.841 102.355C102.79 102.484 102.754 102.622 102.736 102.765C102.679 102.903 102.455 102.827 102.514 102.69C102.661 102.468 102.773 102.225 102.847 101.97C102.844 102.098 102.842 102.227 102.841 102.355ZM102.931 100.76C102.928 100.815 102.931 100.871 102.942 100.928C102.978 101.283 102.945 101.637 102.847 101.97C102.859 101.564 102.885 101.16 102.927 100.756L102.931 100.76ZM102.931 100.76C102.949 100.473 103.15 100.228 103.437 100.172C103.78 100.105 104.12 100.331 104.207 100.682C104.478 101.803 104.635 102.945 104.677 104.09L104.953 107.44C105.013 108.159 105.067 108.878 105.12 109.596C105.154 110.038 105.187 110.479 105.221 110.92C105.233 111.084 105.244 111.248 105.255 111.412C105.278 111.764 105.301 112.116 105.338 112.466C105.456 113.035 105.391 113.622 105.152 114.137C104.998 114.378 104.728 114.514 104.442 114.495C104.156 114.475 103.896 114.304 103.757 114.043C103.488 113.507 103.37 112.909 103.418 112.319L103.321 110.775C103.3 110.448 103.279 110.12 103.258 109.793C103.208 109.005 103.157 108.218 103.114 107.429L102.924 104.086C102.866 103.509 102.838 102.932 102.841 102.355C103.001 101.951 103.312 101.626 103.715 101.457L102.931 100.76Z" fill="#FFD5CE"/>
<path fill-rule="evenodd" clip-rule="evenodd" d="M156.227 368.718C151.708 364.324 147.569 359.554 143.854 354.459L143.855 354.459C143.463 353.936 142.498 354.401 142.818 355.016C146.3 361.462 150.881 367.254 156.35 372.126C165.939 380.877 177.351 387.367 189.739 391.112C195.954 393.017 202.361 394.204 208.833 394.649C212.31 394.855 215.792 394.848 219.26 394.63L219.323 394.601C220.862 393.898 222.402 393.199 223.945 392.509C224.664 393.036 225.683 392.497 225.676 391.74C226.297 391.466 226.92 391.193 227.543 390.922L228.178 393.596C225.224 394.097 222.248 394.442 219.26 394.63L215.457 396.374C215.703 396.352 215.949 396.459 216.099 396.667C216.284 396.921 216.282 397.264 216.096 397.513C215.41 398.331 214.664 399.054 213.909 399.785C213.655 400.031 213.399 400.278 213.145 400.53L211.166 398.456C210.683 398.835 210.483 399.499 210.713 400.106C210.989 400.836 211.79 401.222 212.526 400.981C213.942 400.474 215.316 399.859 216.636 399.141L220.552 397.317C223.222 396.077 225.881 394.81 228.527 393.516C229.162 393.263 229.517 392.584 229.366 391.912C229.211 391.236 228.58 390.778 227.893 390.841C227.109 390.995 226.323 391.136 225.535 391.263C225.51 391.219 225.481 391.176 225.447 391.132C224.226 389.507 222.837 388.015 221.302 386.682C220.497 385.999 219.647 385.373 218.757 384.806C218.068 384.233 217.227 383.871 216.337 383.766C216.062 383.794 215.815 383.948 215.669 384.183C215.524 384.418 215.495 384.707 215.591 384.966C216.071 385.686 216.712 386.283 217.463 386.712C218.152 387.23 218.817 387.781 219.484 388.332C219.539 388.378 219.594 388.424 219.65 388.469C220.848 389.455 221.991 390.505 223.072 391.617C217.67 392.298 212.197 392.363 206.759 391.807C194.218 390.586 182.079 386.59 171.218 380.107C165.818 376.88 160.789 373.06 156.227 368.718ZM213.773 397.092C214.252 396.875 214.737 396.67 215.228 396.479L215.457 396.374C215.402 396.379 215.348 396.391 215.294 396.409C214.771 396.617 214.268 396.848 213.773 397.092ZM213.773 397.092C212.878 397.498 212.004 397.949 211.154 398.444L211.166 398.456C211.265 398.379 211.376 398.313 211.497 398.262C211.807 398.104 212.113 397.944 212.418 397.785C212.869 397.55 213.318 397.316 213.773 397.092Z" fill="#FFD5CE"/>
<path fill-rule="evenodd" clip-rule="evenodd" d="M438.989 176.857C438.989 108.926 383.92 53.8574 315.989 53.8574C248.058 53.8574 192.989 108.926 192.989 176.857V349.257C192.989 352.618 192.989 354.298 193.643 355.581C194.218 356.71 195.136 357.628 196.265 358.203C197.549 358.857 199.229 358.857 202.589 358.857H429.389C432.75 358.857 434.43 358.857 435.713 358.203C436.842 357.628 437.76 356.71 438.335 355.581C438.989 354.298 438.989 352.618 438.989 349.257V176.857Z" fill="#F7CC47"/>
<mask id="mask0_1930_21189" style="mask-type:luminance" maskUnits="userSpaceOnUse" x="192" y="53" width="247" height="306">
<path fill-rule="evenodd" clip-rule="evenodd" d="M438.989 176.857C438.989 108.926 383.92 53.8574 315.989 53.8574C248.058 53.8574 192.989 108.926 192.989 176.857V349.257C192.989 352.618 192.989 354.298 193.643 355.581C194.218 356.71 195.136 357.628 196.265 358.203C197.549 358.857 199.229 358.857 202.589 358.857H429.389C432.75 358.857 434.43 358.857 435.713 358.203C436.842 357.628 437.76 356.71 438.335 355.581C438.989 354.298 438.989 352.618 438.989 349.257V176.857Z" fill="white"/>
</mask>
<g mask="url(#mask0_1930_21189)">
</g>
<rect x="18.9902" y="216.857" width="214" height="112" rx="6" fill="white"/>
<circle cx="58.4902" cy="257.357" r="22.5" fill="#F7CC47"/>
<rect x="101.99" y="243.857" width="62" height="14" rx="2" fill="#FFE4DF"/>
<rect x="101.99" y="281.857" width="6" height="29" rx="3" fill="#FFE4DF"/>
<rect x="118.99" y="276.857" width="6" height="34" rx="3" fill="#FFE4DF"/>
<rect x="136.99" y="272.857" width="6" height="38" rx="3" fill="#FFE4DF"/>
<rect x="153.99" y="279.857" width="6" height="31" rx="3" fill="#FFE4DF"/>
<rect x="170.99" y="285.857" width="6" height="25" rx="3" fill="#FFE4DF"/>
<rect x="188.99" y="281.857" width="6" height="29" rx="3" fill="#FFE4DF"/>
<rect x="205.99" y="289.857" width="6" height="21" rx="3" fill="#FFE4DF"/>
<path d="M80.4268 125.659L55.3318 155.632L64.6261 117.661L28.4766 132.539L54.3519 103.237L15.4293 99.6108L51.9579 85.6902L19.1788 64.3911L57.9925 69.0408L38.8663 34.9481L71.0733 57.1028L69.9815 18.0269L88.2036 52.6112L105.396 17.5038L105.459 56.595L136.998 33.4988L118.887 68.1414L157.546 62.3475L125.41 84.6054L162.334 97.4411L123.536 102.215L150.265 130.74L113.692 116.937L124.103 154.616L98.1342 125.397L89.8428 163.599L80.4268 125.659Z" fill="#F094E3"/>
<path fill-rule="evenodd" clip-rule="evenodd" d="M96.75 81.6074C96.75 86.0257 93.1683 89.6074 88.75 89.6074C84.3317 89.6074 80.75 86.0257 80.75 81.6074C80.75 77.1891 84.3317 73.6074 88.75 73.6074C93.1683 73.6074 96.75 77.1891 96.75 81.6074ZM72.75 102.942C72.75 105.609 75.4167 105.609 75.4167 105.609H102.083C102.083 105.609 104.75 105.609 104.75 102.942C104.75 100.275 102.083 92.2754 88.75 92.2754C75.4167 92.2754 72.75 100.275 72.75 102.942Z" fill="white"/>
</svg>
