<svg width="15" height="16" viewBox="0 0 15 16" fill="none" xmlns="http://www.w3.org/2000/svg">
<path d="M4.0438 1.69922C3.00292 2.24012 2.10326 3.01738 1.41696 3.96869C0.730659 4.91999 0.276807 6.01887 0.0917969 7.17722H0.526797C3.3318 7.11222 5.5308 6.86922 7.3268 6.31922C6.5468 4.93622 5.5948 3.57922 4.4528 2.19922L4.4518 2.19822L4.0438 1.69922Z" fill="white"/>
<path d="M0.002 8.1778L0 8.3578C0 10.3748 0.796 12.2058 2.091 13.5538L2.252 13.2298C2.26095 13.2119 2.27096 13.1945 2.282 13.1778C3.94 10.6558 5.816 9.1558 7.914 8.4828C8.056 8.4368 8.2 8.3948 8.344 8.3568C8.17602 7.9717 7.99695 7.59154 7.807 7.2168C5.842 7.8498 3.48 8.1098 0.544 8.1768H0.003L0.002 8.1778Z" fill="white"/>
<path d="M2.85986 14.25C4.18117 15.2934 5.81627 15.8597 7.49986 15.857C8.39286 15.857 9.24986 15.701 10.0429 15.415V14.695C9.79886 12.76 9.36986 10.985 8.72486 9.29102C8.55486 9.33302 8.38586 9.38102 8.21886 9.43402C6.39686 10.019 4.69386 11.337 3.13386 13.702L2.86086 14.25H2.85986Z" fill="white"/>
<path d="M11.0431 14.9708C12.0097 14.4521 12.851 13.728 13.5079 12.8493C14.1647 11.9706 14.6211 10.9588 14.8451 9.88481L14.2801 9.62981C12.6541 9.15181 11.1391 8.95581 9.72705 9.11481C10.3651 10.8348 10.7941 12.6408 11.0391 14.6028C11.0421 14.6228 11.0431 14.6428 11.0431 14.6648V14.9708Z" fill="white"/>
<path d="M14.984 8.84898C15.116 6.88467 14.4673 4.94765 13.179 3.45898L12.882 3.78798C11.712 5.21098 10.376 6.19798 8.75195 6.86998C8.96395 7.29398 9.16195 7.72098 9.34495 8.15398C11.017 7.91398 12.775 8.13998 14.596 8.67898C14.6182 8.68546 14.6399 8.69348 14.661 8.70298L14.984 8.84898Z" fill="white"/>
<path d="M12.4759 2.74543C11.1052 1.52669 9.33412 0.854695 7.49995 0.85743C6.62195 0.85743 5.77995 1.00743 4.99695 1.28543L5.22495 1.56343C6.44495 3.03643 7.45695 4.49243 8.28295 5.98143C9.82595 5.35843 11.0489 4.44743 12.1169 3.14443C12.1218 3.13831 12.1268 3.13231 12.1319 3.12643L12.4759 2.74643V2.74543Z" fill="white"/>
</svg>
