<svg width="24" height="19" viewBox="0 0 24 19" fill="none" xmlns="http://www.w3.org/2000/svg">
<path fill-rule="evenodd" clip-rule="evenodd" d="M3.0002 0.857422C1.60044 0.857328 0.386642 1.82525 0.0751953 3.18992L12.0002 10.4784L23.9252 3.18992C23.6137 1.82525 22.4 0.857328 21.0002 0.857422H3.0002ZM0 15.5603V4.9043L8.7045 10.2233L0 15.5603ZM10.1411 11.1011L0.286133 17.1416C0.783143 18.1896 1.83975 18.8572 2.99963 18.8561H20.9996C22.1593 18.8564 23.2153 18.1882 23.7116 17.1401L13.8566 11.0996L11.9996 12.2351L10.1411 11.0996V11.1011ZM24.0004 15.5603L15.2959 10.2248V10.2233L24.0004 4.9043V15.5603Z" fill="white"/>
</svg>
