<svg width="40" height="40" viewBox="0 0 40 40" fill="none" xmlns="http://www.w3.org/2000/svg">
<path d="M13.8134 7.47271C12.0859 8.88567 10.0876 12.0803 10.0876 12.0803L0.654672 30.4446C-1.3226 34.2921 1.41242 38.8152 5.73009 39.0253C8.74218 39.1716 11.473 37.3858 12.8458 34.7514L23.6452 14.0452C23.6452 14.0452 15.543 6.05769 13.8134 7.47271Z" fill="url(#paint0_linear_1930_19688)"/>
<path d="M10.0879 12.0779C11.3494 9.66183 13.9963 10.1644 14.8233 11.7874L19.8042 21.3198L21.5968 24.7492L24.4032 30.1229C26.0278 33.1795 24.8188 36.9488 21.7038 38.543C20.7341 39.0394 19.693 39.266 18.6708 39.2495H33.4206C34.4428 39.266 35.4839 39.0373 36.4536 38.543C39.5686 36.9488 40.7776 33.1795 39.153 30.1229L25.566 4.11298C23.1983 -0.370994 16.662 -0.370994 14.2943 4.11298L10.0879 12.0779Z" fill="url(#paint1_linear_1930_19688)"/>
<path d="M21.5964 24.75L9.91329 24.7562C8.78612 24.7562 8.05146 25.9199 8.55523 26.9086L13.1248 35.893C14.2436 37.998 16.4118 39.2153 18.6704 39.2503C19.6926 39.2668 20.7337 39.0382 21.7035 38.5439C24.8184 36.9496 26.0274 33.1804 24.4028 30.1238L21.5964 24.75Z" fill="url(#paint2_linear_1930_19688)"/>
<defs>
<linearGradient id="paint0_linear_1930_19688" x1="2.34606" y1="35.4893" x2="18.0996" y2="13.8509" gradientUnits="userSpaceOnUse">
<stop stop-color="#D56333"/>
<stop offset="0.816337" stop-color="#D15926"/>
</linearGradient>
<linearGradient id="paint1_linear_1930_19688" x1="24.982" y1="39.3491" x2="24.982" y2="0.929443" gradientUnits="userSpaceOnUse">
<stop stop-color="#EF6D58"/>
</linearGradient>
<linearGradient id="paint2_linear_1930_19688" x1="10.4261" y1="27.0605" x2="23.7009" y2="34.6973" gradientUnits="userSpaceOnUse">
<stop stop-color="#FF882F"/>
<stop offset="1" stop-color="#B64836"/>
</linearGradient>
</defs>
</svg>
