<svg width="16" height="17" viewBox="0 0 16 17" fill="none" xmlns="http://www.w3.org/2000/svg">
<path fill-rule="evenodd" clip-rule="evenodd" d="M8 0.857422C5.82667 0.857422 5.556 0.866755 4.70133 0.906755C1.79467 1.04009 0.181333 2.65209 0.048 5.55876C0.00933333 6.41342 0 6.68542 0 8.85742C0 11.0308 0.00933333 11.3028 0.048 12.1561C0.181333 15.0614 1.79467 16.6761 4.70133 16.8094C5.556 16.8481 5.82667 16.8574 8 16.8574C10.1733 16.8574 10.4453 16.8481 11.3 16.8094C14.2013 16.6761 15.8213 15.0641 15.952 12.1561C15.9907 11.3028 16 11.0308 16 8.85742C16 6.68542 15.9907 6.41342 15.952 5.55876C15.8213 2.65609 14.2067 1.03876 11.3 0.906755C10.4453 0.866755 10.1733 0.857422 8 0.857422ZM8.00007 2.29883C10.1361 2.29883 10.3894 2.30683 11.2334 2.34549C13.4027 2.44416 14.4134 3.47216 14.5134 5.62416C14.5507 6.46816 14.5587 6.72016 14.5587 8.85616C14.5587 10.9922 14.5507 11.2455 14.5134 12.0882C14.4134 14.2388 13.4041 15.2695 11.2334 15.3682C10.3894 15.4055 10.1374 15.4148 8.00007 15.4148C5.86407 15.4148 5.61074 15.4068 4.76807 15.3682C2.59474 15.2682 1.58807 14.2362 1.48807 12.0882C1.45074 11.2455 1.44141 10.9922 1.44141 8.85616C1.44141 6.72016 1.45074 6.46683 1.48807 5.62416C1.58674 3.47083 2.59741 2.44283 4.76807 2.34416C5.61074 2.30549 5.86407 2.29883 8.00007 2.29883ZM3.89209 8.85605C3.89209 6.58671 5.73209 4.74805 8.00009 4.74805C10.2681 4.74805 12.1081 6.58805 12.1081 8.85605C12.1081 11.1254 10.2681 12.964 8.00009 12.964C5.73209 12.964 3.89209 11.1254 3.89209 8.85605ZM8.00016 11.5228C6.52683 11.5228 5.3335 10.3295 5.3335 8.85612C5.3335 7.38412 6.52683 6.18945 8.00016 6.18945C9.47216 6.18945 10.6682 7.38279 10.6682 8.85612C10.6682 10.3295 9.47216 11.5228 8.00016 11.5228ZM11.3096 4.58695C11.3096 4.05629 11.7402 3.62695 12.2696 3.62695C12.8016 3.62695 13.2309 4.05629 13.2309 4.58695C13.2309 5.11762 12.8002 5.54695 12.2696 5.54695C11.7389 5.54695 11.3096 5.11629 11.3096 4.58695Z" fill="white"/>
</svg>
