<svg width="20" height="18" viewBox="0 0 20 18" fill="none" xmlns="http://www.w3.org/2000/svg">
<path d="M5.1086 6.38086V17.8573H1.2242V6.38086H5.1086ZM5.35556 2.83778L5.357 2.9072C5.357 3.43774 5.12804 3.91515 4.76228 4.24949L4.76084 4.2502C4.54538 4.44406 4.29298 4.59397 4.01825 4.69123C3.74351 4.7885 3.4519 4.8312 3.16028 4.81686H3.16532H3.14156C2.85664 4.83016 2.57192 4.78676 2.30445 4.68927C2.03698 4.59178 1.79225 4.4422 1.58492 4.24949L1.58564 4.2502C1.39311 4.06745 1.24148 3.84718 1.14044 3.60349C1.0394 3.35979 0.991167 3.09803 0.998837 2.83495V2.83778L0.998117 2.7889C0.998117 2.24915 1.2314 1.76324 1.60364 1.42253L1.60508 1.42182C2.03747 1.0344 2.60845 0.831618 3.19268 0.857988H3.18836C3.4746 0.844225 3.76075 0.886958 4.02994 0.98367C4.29913 1.08038 4.54593 1.22912 4.7558 1.42111L4.75436 1.4197C4.94473 1.59973 5.09612 1.81578 5.19944 2.05485C5.30275 2.29392 5.35586 2.55108 5.35556 2.81086V2.84061V2.8392V2.83778ZM19.0802 11.2811V17.8573H15.208V11.7196C15.2474 11.0461 15.0779 10.3767 14.722 9.79999L14.7307 9.81486C14.5632 9.58284 14.3375 9.39746 14.0756 9.27679C13.8136 9.15613 13.5243 9.1043 13.236 9.12636H13.2417C12.7911 9.11053 12.3495 9.25317 11.9961 9.5287L12.0004 9.52586C11.6742 9.78457 11.4188 10.1194 11.2574 10.4998L11.2516 10.5161C11.153 10.8206 11.1094 11.1396 11.1228 11.4589V11.4539V17.8587H7.2506C7.26644 14.7784 7.27436 12.2808 7.27436 10.3659C7.27436 8.45109 7.27052 7.30854 7.26284 6.93832L7.25132 6.38228H11.1235V8.0497H11.0997C11.2538 7.80532 11.4129 7.59353 11.5879 7.3952L11.5821 7.40157C11.7844 7.1827 12.0019 6.98507 12.2359 6.80799L12.2474 6.79949C12.547 6.57333 12.8869 6.4042 13.2496 6.30082L13.2712 6.29586C13.6915 6.17523 14.1273 6.11463 14.5651 6.11595H14.622H14.6191C15.2226 6.09094 15.8245 6.19523 16.3831 6.42161C16.9416 6.64799 17.4435 6.99106 17.854 7.42707L17.8562 7.42991C18.6732 8.30635 19.0816 9.58985 19.0816 11.2804L19.0802 11.2811Z" fill="white"/>
</svg>
