<svg width="282" height="243" viewBox="0 0 282 243" fill="none" xmlns="http://www.w3.org/2000/svg">
<path fill-rule="evenodd" clip-rule="evenodd" d="M203.057 14.2256C192.724 4.16101 178.353 -0.617115 164.053 1.2575C150.128 3.21761 137.759 11.1733 130.197 23.0316C125.881 29.6808 123.251 37.2831 122.536 45.1791L124.448 43.2637C106.753 41.7332 88.9499 44.5172 72.5657 51.377C58.8066 57.955 49.0869 70.7936 46.487 85.824C45.1312 93.8013 46.823 101.997 51.2267 108.785L52.4998 105.659C30.8967 111.142 12.9549 126.147 3.73268 146.442C-0.397925 156.737 -1.1216 168.086 1.6678 178.823C4.3903 188.687 10.7034 197.176 19.3659 202.621C28.5991 208.706 40.0684 210.346 50.636 207.09L47.7064 205.428C54.0301 224.141 70.2022 237.807 89.7043 240.917C111.703 245.283 134.529 242.235 154.612 232.249C166.622 226.599 177.53 218.855 186.824 209.379L185.083 210.102C197.301 210.856 209.553 209.345 221.221 205.645C232.013 202.424 242.253 197.582 251.591 191.285C260.236 185.589 267.479 178.009 272.777 169.114C277.588 160.735 279.703 151.078 278.833 141.455C278.132 130.798 272.893 120.955 264.445 114.422V118.801C276.324 109.737 282.878 95.3275 281.905 80.4151C280.765 68.9465 275.09 58.4093 266.143 51.1472C257.195 43.8851 245.718 40.5004 234.263 41.7458L236.053 46.0705C244.119 38.3369 246.322 26.3036 241.519 16.2132C236.475 6.40059 225.403 1.27828 214.661 3.78727C208.742 4.95808 203.463 8.27416 199.837 13.0992C199.178 14.2468 199.562 15.7112 200.699 16.3879C201.849 17.0242 203.295 16.645 203.985 15.5266C209.631 8.90661 218.776 6.45991 226.972 9.37685C235.246 12.606 240.181 21.1375 238.855 29.9222C238.371 34.7607 236.094 39.2429 232.472 42.4867C231.771 43.2192 231.57 44.2964 231.957 45.2329C232.345 46.1695 233.249 46.7886 234.262 46.8114C247.545 45.3028 260.685 50.64 269.156 60.9841C277.231 71.2768 279.294 85.0617 274.584 97.2682C272.171 104.132 267.747 110.11 261.887 114.422C261.218 114.826 260.77 115.514 260.67 116.289C260.57 117.065 260.83 117.843 261.375 118.404C275.396 130.868 278.216 151.707 268.01 167.451C262.645 176.099 255.335 183.375 246.664 188.701C237.131 194.773 226.713 199.327 215.783 202.199C209.876 203.814 203.826 204.849 197.718 205.289C194.756 205.482 191.782 205.464 188.817 205.367C187.365 205.136 185.889 205.1 184.427 205.259C183.145 205.938 182.034 206.897 181.175 208.066C173.481 215.519 164.712 221.775 155.161 226.624C136.985 236.312 116.238 240.081 95.8171 237.405C78.2614 235.781 62.6744 225.5 54.2666 209.999C53.4457 208.111 52.7872 206.157 52.298 204.157C51.938 202.896 50.6344 202.156 49.3678 202.494C31.6129 207.473 13.0343 197.858 6.84114 180.485C3.56271 170.828 3.5733 160.357 6.87125 150.706C10.1392 141.077 15.9578 132.515 23.707 125.933C32.4407 118.509 42.6353 113.001 53.6313 109.766C54.2645 109.583 54.7789 109.12 55.0271 108.509C55.2754 107.898 55.2301 107.207 54.9043 106.634C48.134 94.9387 49.1283 80.3053 57.4184 69.6335C66.8794 57.4735 80.9806 49.8095 96.3283 48.4858C105.645 47.2104 115.054 46.7428 124.45 47.0884C125.496 47.0668 126.339 46.225 126.363 45.1791C127.669 32.2983 134.373 20.575 144.811 12.9185C155.444 5.34588 168.837 2.75343 181.527 5.81108C188.903 7.47383 195.784 10.8518 201.611 15.6711C202.016 16.0313 202.631 16.0131 203.015 15.6298C203.398 15.2465 203.416 14.6308 203.056 14.2256H203.057Z" fill="#E7C4B2"/>
</svg>
