<svg width="24" height="25" viewBox="0 0 24 25" fill="none" xmlns="http://www.w3.org/2000/svg">
<path fill-rule="evenodd" clip-rule="evenodd" d="M2.82812 1.62272C3.35902 1.09257 4.09188 0.815751 4.84066 0.862518C5.58945 0.909285 6.28217 1.27514 6.743 1.86723L9.43541 5.32639C9.92889 5.96092 10.1029 6.78745 9.9079 7.56749L9.08742 10.8526C9.00114 11.1987 9.10245 11.5647 9.35441 11.8172L13.0398 15.5029C13.2925 15.7554 13.6592 15.8567 14.0058 15.7699L17.2892 14.9493C18.0691 14.7543 18.8953 14.9285 19.5301 15.4218L22.989 18.113C24.2324 19.0805 24.3464 20.9181 23.2335 22.0296L21.6825 23.5807C20.5726 24.6908 18.9136 25.1783 17.3672 24.6338C13.4091 23.241 9.81531 20.9749 6.85249 18.0035C3.88152 15.0409 1.61557 11.4474 0.222699 7.48949C-0.320284 5.94442 0.167201 4.28384 1.27717 3.17379L2.82812 1.62272Z" fill="white"/>
</svg>
