<svg width="114" height="91" viewBox="0 0 114 91" fill="none" xmlns="http://www.w3.org/2000/svg">
<path fill-rule="evenodd" clip-rule="evenodd" d="M51.6729 51.2192C51.7068 51.3891 52.7876 66.2817 42.1046 77.8787C34.1659 86.4916 22.1532 90.8574 6.40593 90.8574H0.747559V74.8889L5.29123 73.9829C13.1054 72.42 18.5205 69.3226 21.395 64.7868C22.867 62.4033 23.7028 59.6813 23.8224 56.8818H6.40593C3.2809 56.8818 0.747559 54.3466 0.747559 51.2192V11.5811C0.747559 5.33521 5.82312 0.255859 12.0643 0.255859H46.0145C49.1395 0.255859 51.6729 2.79109 51.6729 5.91846V51.2192ZM113.956 51.2192C113.99 51.3891 115.065 66.2817 104.387 77.8787C96.4487 86.4916 84.436 90.8574 68.6887 90.8574H63.0303V74.8889L67.574 73.9829C75.3882 72.42 80.8033 69.3226 83.6777 64.7868C85.1498 62.4033 85.9856 59.6813 86.1052 56.8818H68.6887C65.5637 56.8818 63.0303 54.3466 63.0303 51.2192V11.5811C63.0303 5.33521 68.1059 0.255859 74.3471 0.255859H108.297C111.422 0.255859 113.956 2.79109 113.956 5.91846V51.2192Z" fill="#391400"/>
</svg>
