<svg width="148" height="149" viewBox="0 0 148 149" fill="none" xmlns="http://www.w3.org/2000/svg">
<path d="M74 111.857L56.2906 146.707L56.8052 107.619L24.9289 130.247L43.5496 95.8758L4.8088 101.098L37.2698 79.3173L0.539543 65.9377L39.4044 61.737L13.0992 32.8206L49.4645 47.1625L39.6105 9.33368L65.1453 38.9326L74 0.857422L82.8547 38.9326L108.39 9.33368L98.5355 47.1625L134.901 32.8206L108.596 61.737L147.46 65.9377L110.73 79.3173L143.191 101.098L104.45 95.8758L123.071 130.247L91.1948 107.619L91.7094 146.707L74 111.857Z" fill="#EF6D58"/>
<path fill-rule="evenodd" clip-rule="evenodd" d="M64 63.8574C64 61.096 66.2386 58.8574 69 58.8574C71.7614 58.8574 74 61.096 74 63.8574C74 61.096 76.2386 58.8574 79 58.8574C81.7614 58.8574 84 61.096 84 63.8574V63.8694C84 64.0094 84 64.4094 83.924 64.8574H88C89.1046 64.8574 90 65.7529 90 66.8574V68.8574C90 69.962 89.1046 70.8574 88 70.8574H60C58.8954 70.8574 58 69.962 58 68.8574V66.8574C58 65.7529 58.8954 64.8574 60 64.8574H64.076C64.0232 64.5308 63.9978 64.2003 64 63.8694V63.8574ZM66.136 64.8574H72V63.8574C72 62.7856 71.4282 61.7952 70.5 61.2593C69.5718 60.7234 68.4282 60.7234 67.5 61.2593C66.5718 61.7952 66 62.7856 66 63.8574C66 64.0274 66.004 64.4054 66.09 64.7174C66.102 64.7651 66.1174 64.8119 66.136 64.8574ZM81.864 64.8574H76V63.8574C76 62.2006 77.3431 60.8574 79 60.8574C80.6569 60.8574 82 62.2006 82 63.8574C82 64.0274 81.996 64.4054 81.91 64.7174C81.8978 64.765 81.8824 64.8118 81.864 64.8574ZM88 72.8574V87.8574C88 89.5143 86.6569 90.8574 85 90.8574H76V72.8574H88ZM60 87.8574C60 89.5143 61.3431 90.8574 63 90.8574H72V72.8574H60V87.8574Z" fill="white"/>
</svg>
