<svg width="86" height="86" viewBox="0 0 86 86" fill="none" xmlns="http://www.w3.org/2000/svg">
<circle cx="43" cy="43" r="43" fill="#EF6D58"/>
<path fill-rule="evenodd" clip-rule="evenodd" d="M53.7495 21.5C53.5835 21.5 53.4358 21.6052 53.3814 21.762V21.7647L52.6908 23.8422C52.3818 24.7721 51.6535 25.5004 50.7237 25.8094L48.6438 26.5028C48.487 26.5572 48.3818 26.705 48.3818 26.871C48.3818 27.037 48.487 27.1848 48.6438 27.2392L50.7211 27.9326C51.6501 28.2417 52.379 28.9707 52.6881 29.8998L53.3814 31.98C53.4358 32.1368 53.5835 32.242 53.7495 32.242C53.9155 32.242 54.0633 32.1368 54.1177 31.98L54.811 29.8998C55.1201 28.9707 55.849 28.2417 56.778 27.9326L58.8579 27.2392C59.0148 27.1848 59.1199 27.037 59.1199 26.871C59.1199 26.705 59.0148 26.5572 58.8579 26.5028L56.778 25.8094C55.8483 25.5004 55.12 24.7721 54.811 23.8422L54.1177 21.762C54.0633 21.6052 53.9155 21.5 53.7495 21.5ZM34.3852 24.5796C34.4642 24.3409 34.6873 24.1797 34.9388 24.1797C35.1902 24.1797 35.4133 24.3409 35.4923 24.5796L36.5323 27.7024C36.9972 29.0946 38.0882 30.1857 39.4801 30.6506L42.6027 31.6907C42.8414 31.7698 43.0025 31.9929 43.0025 32.2443C43.0025 32.4958 42.8414 32.7189 42.6027 32.798L39.4801 33.838C38.0882 34.3018 36.996 35.3942 36.5323 36.7862L35.4923 39.9091C35.4133 40.1478 35.1902 40.309 34.9388 40.309C34.6873 40.309 34.4642 40.1478 34.3852 39.9091L33.3452 36.7862C32.8815 35.3942 31.7893 34.3018 30.3974 33.838L27.2748 32.798C27.0361 32.7189 26.875 32.4958 26.875 32.2443C26.875 31.9929 27.0361 31.7698 27.2748 31.6907L30.3974 30.6506C31.7893 30.1868 32.8815 29.0945 33.3452 27.7024L34.3852 24.5796ZM44.7662 38.2823C45.0618 37.3955 46.3141 37.3955 46.6097 38.2823L48.3429 43.4881C49.1164 45.8082 50.9375 47.6285 53.2578 48.4008L58.4603 50.1343C59.347 50.4299 59.347 51.6823 58.4603 51.9779L53.2551 53.7113C50.9352 54.4849 49.1152 56.3062 48.3429 58.6268L46.6097 63.8298C46.4789 64.2282 46.1072 64.4975 45.688 64.4975C45.2687 64.4975 44.897 64.2282 44.7662 63.8298L43.033 58.6241C42.26 56.3046 40.4401 54.4844 38.1208 53.7113L32.9156 51.9779C32.5173 51.8472 32.248 51.4753 32.248 51.0561C32.248 50.6368 32.5173 50.265 32.9156 50.1343L38.1208 48.4008C40.4401 47.6278 42.26 45.8076 43.033 43.4881L44.7662 38.2823Z" fill="white"/>
</svg>
