<svg width="53" height="108" viewBox="0 0 53 108" fill="none" xmlns="http://www.w3.org/2000/svg">
<path fill-rule="evenodd" clip-rule="evenodd" d="M3.67629 1.03363C2.54176 1.05735 1.40698 0.999901 0.280644 0.861718L0.959774 0.896102L3.67629 1.03363ZM3.67629 1.03363L4.01586 1.05083C5.03095 1.15831 6.05119 1.20996 7.07194 1.20555C8.0932 1.16871 9.11572 1.22048 10.128 1.36027C7.97872 1.71182 5.77911 1.60046 3.67629 1.03363ZM39.938 103.28C43.683 105.473 48.0257 106.413 52.3385 105.964L52.2477 107.758C50.0339 108.052 47.7856 107.938 45.6127 107.422C41.0617 106.581 36.9373 104.195 33.9303 100.662C31.6219 97.8346 30.0974 94.4647 29.4846 90.8919C30.126 90.9064 30.7683 90.8903 31.4092 90.8434C31.529 91.779 31.7204 92.7084 31.984 93.6235C33.4709 97.6542 36.275 101.058 39.938 103.28ZM31.2621 88.8223C31.2743 89.4971 31.3233 90.1718 31.4092 90.8434C32.6933 90.7493 33.9722 90.5316 35.228 90.1893C39.4082 89.4191 43.1164 87.0197 45.5439 83.5145C46.7196 81.294 46.8527 78.6639 45.9074 76.3359C45.3293 74.6125 44.1222 73.1736 42.5294 72.3094C39.1435 71.4822 35.5867 72.7065 33.416 75.4465C30.2949 78.8716 28.7612 83.4627 29.1943 88.0845C29.1983 88.1943 29.2031 88.304 29.2088 88.4135C28.7748 88.2994 28.3443 88.1682 27.9184 88.0199C24.053 87.335 20.4339 85.6453 17.421 83.1189C11.2373 76.5908 7.42765 68.1568 6.60825 59.1812C5.94985 53.9541 6.50902 48.6866 8.19133 43.7778C9.40615 45.0707 10.7977 46.202 12.3351 47.1334C16.1948 49.2254 20.7882 49.458 24.8394 47.7665C28.759 46.3706 31.6538 42.9985 32.4521 38.8986C33.1045 34.9741 31.6538 30.9952 28.633 28.4239C24.8506 25.5173 19.6749 25.2552 15.6183 27.7649C11.6894 30.7412 8.66815 34.6494 6.76067 39.0543C5.12022 35.7883 4.27902 32.1618 4.32501 28.4784C3.82519 20.1192 6.73464 11.9143 12.3834 5.75314C13.1648 4.65314 14.0598 3.64139 15.0523 2.73428L15.9906 10.3054L16.4319 1.5885L16.4708 0.819364C16.0676 1.04701 15.6713 1.2841 15.2822 1.53029L14.9007 1.51098L14.9311 1.75616C8.25101 6.12538 3.74819 13.207 2.64693 21.1964C1.76618 26.3836 2.20046 31.7096 3.90965 36.6825C4.43569 38.2083 5.14192 39.6525 6.00623 40.9876C4.86091 44.273 4.31469 47.7857 4.44574 51.3606C3.55696 61.8169 6.38239 72.2497 12.4211 80.8094C15.1119 84.5086 18.6443 87.5075 22.7237 89.5562C24.8977 90.3926 27.1853 90.8396 29.4846 90.8919C29.3445 90.075 29.2521 89.2475 29.2088 88.4135C29.8859 88.5915 30.5716 88.7278 31.2621 88.8223ZM14.9311 1.75616L15.0523 2.73428C15.4934 2.33121 15.9537 1.94881 16.4319 1.5885L15.2822 1.53029C15.1645 1.60475 15.0475 1.68005 14.9311 1.75616ZM8.74632 42.274C8.5495 42.7712 8.36446 43.2726 8.19133 43.7778C7.38136 42.9158 6.64995 41.982 6.00623 40.9876C6.23418 40.3337 6.48587 39.6888 6.76067 39.0543C7.14039 39.8103 7.56294 40.5469 8.02723 41.2605C8.25425 41.609 8.49421 41.947 8.74632 42.274ZM8.74632 42.274C9.6386 40.0202 10.7732 37.8534 12.1406 35.814C14.5929 32.3607 18.46 30.1971 22.6728 29.9213C26.323 29.8532 29.5134 32.3806 30.2981 35.9622C31.1872 39.2802 30.1142 42.818 27.5341 45.0755C24.7708 47.5292 21.0394 48.5722 17.413 47.9046C13.9592 47.0687 10.9066 45.0759 8.74632 42.274ZM31.2621 88.8223C31.2176 86.3572 31.6641 83.8912 32.5941 81.5737C33.1524 78.3542 35.3188 75.6484 38.3295 74.4101C39.9042 74.192 41.4994 74.6241 42.7511 75.6076C44.0029 76.5912 44.8045 78.0423 44.973 79.6301C44.7547 81.7612 43.7408 83.7304 42.1356 85.1412C40.8656 86.5538 39.3293 87.6992 37.6156 88.5109C35.5252 89.0088 33.3712 89.1108 31.2621 88.8223Z" fill="#8082A5"/>
</svg>
