<svg width="16" height="14" viewBox="0 0 16 14" fill="none" xmlns="http://www.w3.org/2000/svg">
<path d="M16 2.39742C15.412 2.65876 14.7787 2.83476 14.1147 2.91476C14.7933 2.50809 15.312 1.86542 15.5587 1.09876C14.924 1.47476 14.2213 1.74809 13.4733 1.89476C12.876 1.25609 12.0213 0.857422 11.0787 0.857422C8.95867 0.857422 7.40133 2.83476 7.88 4.88809C5.15333 4.75076 2.73333 3.44409 1.11467 1.45876C0.254667 2.93342 0.669333 4.86409 2.13067 5.84142C1.59333 5.82409 1.088 5.67609 0.645333 5.43076C0.609333 6.95076 1.7 8.37342 3.27867 8.69076C2.81733 8.81609 2.31067 8.84542 1.796 8.74676C2.21333 10.0508 3.428 10.9988 4.86267 11.0254C3.48 12.1081 1.74267 12.5921 0 12.3868C1.45333 13.3188 3.17733 13.8614 5.03067 13.8614C11.1267 13.8614 14.5693 8.71342 14.3613 4.09609C15.004 3.63476 15.56 3.05609 16 2.39742Z" fill="white"/>
</svg>
