<svg width="126" height="20" viewBox="0 0 126 20" fill="none" xmlns="http://www.w3.org/2000/svg">
<path d="M66.6195 0.386495C67.2913 0.132806 67.9836 -0.0726823 68.7013 0.038941C70.185 0.269798 71.0401 1.86804 70.4828 3.36227C70.0832 4.44299 69.6353 5.50594 69.2103 6.57651L66.2657 13.9614C66.2326 14.0451 66.2123 14.1339 66.1843 14.2151L66.1537 14.2582H66.225C67.5925 13.7965 68.9575 13.3348 70.3199 12.8731C71.2615 12.5534 72.1981 12.2211 73.1448 11.9141C73.3993 11.8304 73.4935 11.7239 73.468 11.4473C73.2135 8.58066 75.1706 4.87426 78.049 3.38764C83.7498 0.43977 89.812 4.04723 90.7511 9.47618L90.8198 9.89477C90.9165 10.4706 90.6976 10.8233 90.1326 10.9856L85.2793 12.4012L79.6982 14.0324L79.4157 14.1212C80.0467 14.742 80.8782 15.1195 81.7622 15.1867C82.4635 15.2675 83.1739 15.1687 83.8262 14.8997C84.4786 14.6307 85.0514 14.2004 85.4906 13.6494C85.885 13.175 86.1981 13.142 86.7402 13.4312C87.4858 13.8447 88.2341 14.2557 88.9772 14.6717C89.1003 14.724 89.2091 14.8046 89.2949 14.9069C89.3806 15.0093 89.4407 15.1305 89.4703 15.2605C89.4998 15.3905 89.498 15.5257 89.4649 15.6549C89.4319 15.7841 89.3685 15.9036 89.2801 16.0036C88.5607 17.0245 87.6245 17.8747 86.538 18.4938C85.4515 19.113 84.2414 19.4858 82.9939 19.5857C81.5935 19.7514 80.1739 19.5457 78.8787 18.9895C77.3829 18.3071 76.0897 17.2505 75.1248 15.9224C74.9772 15.7271 74.8703 15.6687 74.6387 15.7525C71.0401 16.9955 67.4406 18.2318 63.8403 19.4614C63.3979 19.6345 62.9448 19.7794 62.4838 19.8952C62.1486 19.9592 61.8027 19.9393 61.4771 19.8374C61.1514 19.7354 60.8563 19.5545 60.618 19.311C60.3797 19.0674 60.2057 18.7687 60.1116 18.4417C60.0175 18.1146 60.0062 17.7694 60.0788 17.4369C60.3333 16.2091 60.8958 15.0903 61.3513 13.936C62.4406 11.1581 63.5578 8.39293 64.6598 5.6201C64.7005 5.51863 64.7209 5.40701 64.7514 5.30299L66.6195 0.386495ZM85.0376 7.88555C83.9559 6.7541 81.9225 6.46996 80.365 7.20313C79.2248 7.74095 78.5122 8.63393 78.1177 9.8897L85.0376 7.88555Z" fill="#C86868"/>
<path d="M66.6189 0.386719L64.7534 5.30322L58.2815 7.30229L56.8945 7.73102C57.1394 8.46012 57.3475 9.20097 57.518 9.95081C57.8352 11.5807 57.6579 13.2678 57.0089 14.7968C56.3599 16.3258 55.2685 17.6274 53.8741 18.5354C52.4797 19.4434 50.8455 19.9167 49.1801 19.8948C47.5147 19.8729 45.8936 19.3568 44.5237 18.4124C43.1539 17.4681 42.0973 16.1383 41.489 14.5927C40.8807 13.0471 40.7482 11.356 41.1083 9.73498C41.4685 8.11401 42.305 6.63678 43.5112 5.49182C44.7173 4.34687 46.2383 3.58612 47.8801 3.30668C49.8042 3.01748 51.6976 3.22804 53.4231 4.24533C53.5636 4.3129 53.7243 4.32557 53.8736 4.28085C58.0864 2.99549 62.2958 1.7059 66.5018 0.412088L66.6189 0.386719ZM49.4275 8.0253C48.7521 8.02235 48.0909 8.21877 47.5274 8.58983C46.9638 8.96088 46.523 9.48994 46.2606 10.1103C45.9983 10.7307 45.926 11.4146 46.053 12.0759C46.18 12.7371 46.5005 13.3461 46.9742 13.8261C47.4479 14.306 48.0535 14.6354 48.7147 14.7727C49.3759 14.9101 50.0631 14.8492 50.6897 14.5978C51.3162 14.3464 51.8541 13.9158 52.2355 13.3601C52.6168 12.8045 52.8246 12.1487 52.8327 11.4755C52.8381 11.0256 52.7541 10.5791 52.5855 10.1617C52.417 9.74437 52.1673 9.36437 51.8507 9.04365C51.5342 8.72294 51.1571 8.46784 50.7412 8.29306C50.3253 8.11828 49.8788 8.02728 49.4275 8.0253Z" fill="#2A3949"/>
<path d="M96.9949 14.1213C98.5881 15.6764 101.398 15.5445 102.879 13.8676C103.564 13.1065 103.668 13.0735 104.574 13.5733C105.241 13.942 105.906 14.3115 106.569 14.6819C106.688 14.7353 106.793 14.8157 106.876 14.9166C106.958 15.0175 107.016 15.1363 107.045 15.2634C107.073 15.3904 107.071 15.5224 107.04 15.6487C107.008 15.775 106.947 15.8922 106.862 15.991C106.144 17.0112 105.21 17.8611 104.125 18.4803C103.04 19.0994 101.832 19.4725 100.586 19.5731C99.0818 19.7202 97.5981 19.5731 96.2594 18.8805C94.0111 17.7608 92.286 15.8156 91.4469 13.4541C89.9606 9.5092 92.6405 3.88745 97.5548 2.62661C102.469 1.36578 107.46 4.50645 108.315 9.47622C108.341 9.6259 108.363 9.77558 108.389 9.92525C108.488 10.4884 108.259 10.836 107.681 11.0034L101.805 12.7158L96.9949 14.1213ZM102.617 7.88559C101.545 6.76428 99.5297 6.47254 97.9824 7.19048C96.827 7.72577 96.1042 8.62383 95.6919 9.88974L102.617 7.88559Z" fill="#C86868"/>
<path d="M114.589 14.1269C115.958 15.5019 118.429 15.5856 119.989 14.3095C120.24 14.0894 120.476 13.8521 120.694 13.5992C121.053 13.211 121.371 13.1476 121.834 13.4013C122.608 13.8275 123.38 14.2562 124.15 14.6875C124.269 14.7403 124.374 14.82 124.457 14.9202C124.539 15.0204 124.598 15.1383 124.627 15.2648C124.656 15.3913 124.655 15.5227 124.624 15.6488C124.594 15.7749 124.534 15.8922 124.45 15.9915C123.733 17.012 122.8 17.8623 121.715 18.4819C120.631 19.1015 119.423 19.4751 118.177 19.5761C116.627 19.7258 115.123 19.5761 113.728 18.8328C111.535 17.6982 109.856 15.776 109.03 13.4546C107.534 9.4818 110.252 3.85498 115.202 2.60429C116.361 2.31235 117.569 2.26149 118.749 2.45488C119.929 2.64827 121.056 3.08177 122.061 3.72838C123.066 4.37499 123.926 5.22086 124.588 6.21331C125.251 7.20576 125.701 8.32354 125.911 9.49703C125.934 9.62641 125.957 9.75071 125.977 9.88517C126.074 10.489 125.86 10.8289 125.278 10.9989L119.404 12.7113L114.874 14.0355L114.589 14.1269ZM120.188 7.88864C119.241 6.91954 117.459 6.46544 115.815 7.07429C114.362 7.61211 113.41 9.04292 113.344 9.86487L120.188 7.88864Z" fill="#C86868"/>
<path d="M31.6094 3.22874C35.3557 2.93699 39.9697 6.25525 39.9748 11.4584C39.9748 16.0248 36.2031 19.7439 31.5763 19.7617C30.4503 19.7593 29.3362 19.5312 28.3004 19.091C27.2646 18.6508 26.3281 18.0074 25.5468 17.1992C24.7654 16.391 24.155 15.4344 23.752 14.3862C23.349 13.3381 23.1615 12.22 23.2008 11.0982C23.3815 6.48103 27.5425 2.93699 31.6094 3.22874ZM31.6094 14.8401C32.2848 14.8431 32.946 14.6466 33.5096 14.2756C34.0731 13.9045 34.5139 13.3755 34.7763 12.7551C35.0387 12.1347 35.1109 11.4508 34.9839 10.7895C34.8569 10.1283 34.5364 9.51927 34.0627 9.03934C33.5891 8.55941 32.9834 8.23001 32.3222 8.09266C31.661 7.95532 30.9738 8.01617 30.3473 8.26757C29.7207 8.51896 29.1828 8.94963 28.8015 9.50528C28.4201 10.0609 28.2123 10.7167 28.2042 11.3899C28.1988 11.8409 28.2833 12.2884 28.4526 12.7066C28.6219 13.1248 28.8728 13.5054 29.1907 13.8262C29.5085 14.1471 29.8871 14.402 30.3045 14.576C30.7219 14.75 31.1697 14.8398 31.6222 14.8401H31.6094Z" fill="#2A3949"/>
<path d="M15.4976 10.7852L17.2308 6.70591C17.3529 6.4167 17.4853 6.1275 17.5973 5.84083C17.7104 5.51126 17.8903 5.20843 18.126 4.95122C18.3616 4.69401 18.6478 4.48792 18.9668 4.34579C19.2859 4.20367 19.6308 4.12855 19.9802 4.12512C20.3296 4.12169 20.676 4.19003 20.9978 4.32587C21.3195 4.4617 21.6098 4.66214 21.8505 4.91468C22.0911 5.16722 22.277 5.46645 22.3966 5.79374C22.5162 6.12103 22.5669 6.46935 22.5455 6.81702C22.5241 7.16469 22.4312 7.50424 22.2724 7.81453C21.341 10.0318 20.3942 12.2414 19.4551 14.4688C18.9258 15.7136 18.3989 16.9609 17.8747 18.2107C17.6925 18.6937 17.3668 19.1098 16.9412 19.4035C16.5156 19.6973 16.0102 19.8546 15.4926 19.8546C14.9749 19.8546 14.4695 19.6973 14.0439 19.4035C13.6183 19.1098 13.2927 18.6937 13.1104 18.2107L11.1381 13.5327C11.105 13.454 11.0668 13.3754 11.0057 13.246C10.9319 13.4084 10.8759 13.5225 10.8276 13.6392C10.1812 15.1817 9.52964 16.7317 8.86031 18.2741C8.7474 18.6054 8.56697 18.9098 8.33037 19.1682C8.09377 19.4266 7.80611 19.6334 7.48547 19.7757C7.16482 19.9179 6.81813 19.9925 6.46717 19.9948C6.11621 19.9971 5.76858 19.927 5.44611 19.7889C5.12364 19.6508 4.83331 19.4477 4.59336 19.1924C4.35341 18.9371 4.16902 18.635 4.0518 18.3053C3.93457 17.9755 3.88704 17.6252 3.91218 17.2762C3.93732 16.9273 4.03459 16.5873 4.19789 16.2776C5.04622 14.2481 5.90218 12.2287 6.76578 10.2195C7.38167 8.75572 7.99501 7.2894 8.62617 5.84337C8.79224 5.44139 9.05828 5.08819 9.39921 4.81708C9.74014 4.54598 10.1447 4.36589 10.5748 4.2938C11.0049 4.22172 11.4463 4.26001 11.8574 4.40506C12.2685 4.55011 12.6358 4.79716 12.9247 5.12289C13.1393 5.37782 13.3112 5.66566 13.4337 5.97528C14.0979 7.49742 14.7418 9.04239 15.3933 10.5747C15.4213 10.6229 15.4493 10.6787 15.4976 10.7852Z" fill="#2A3949"/>
<path d="M2.91994 12.8803C2.3524 11.901 1.81541 10.9624 1.27333 10.0288C1.01883 9.58231 0.736335 9.14089 0.471656 8.70201C-0.149322 7.65935 -0.172227 6.604 0.492016 5.58924C0.773286 5.11754 1.19137 4.74189 1.69114 4.51182C2.1909 4.28176 2.74888 4.20808 3.29151 4.3005C3.86393 4.35638 4.40464 4.58872 4.83843 4.9652C5.27221 5.34168 5.57749 5.84357 5.71179 6.40105C5.82239 6.7713 5.85326 7.16067 5.80239 7.54365C5.75151 7.92662 5.62004 8.29456 5.41657 8.62336C4.6412 9.96115 3.86158 11.2981 3.07773 12.6342C3.03701 12.6925 2.99374 12.761 2.91994 12.8803Z" fill="#C86868"/>
</svg>
